<mxfile host="Electron" modified="2023-12-21T17:43:56.574Z" agent="Mozilla/5.0 (Windows NT 10.0; Win64; x64) AppleWebKit/537.36 (KHTML, like Gecko) draw.io/22.1.11 Chrome/114.0.5735.289 Electron/25.9.8 Safari/537.36" etag="j_Kt3ShX_lken_-sx4Cy" version="22.1.11" type="device">
  <diagram name="Страница — 1" id="iccQO1knJx4fQwvvYH7b">
    <mxGraphModel dx="398" dy="232" grid="1" gridSize="10" guides="1" tooltips="1" connect="1" arrows="1" fold="1" page="1" pageScale="1" pageWidth="827" pageHeight="1169" math="0" shadow="0">
      <root>
        <mxCell id="0" />
        <mxCell id="1" parent="0" />
        <mxCell id="4vGNX6ftqIx7hebFvJX0-1" value="Adapter" style="shape=module;align=left;spacingLeft=20;align=center;verticalAlign=top;whiteSpace=wrap;html=1;" parent="1" vertex="1">
          <mxGeometry x="29" y="10" width="1371" height="160" as="geometry" />
        </mxCell>
        <mxCell id="4vGNX6ftqIx7hebFvJX0-2" value="Logic" style="shape=module;align=left;spacingLeft=20;align=center;verticalAlign=top;whiteSpace=wrap;html=1;" parent="1" vertex="1">
          <mxGeometry x="29" y="180" width="1370" height="480" as="geometry" />
        </mxCell>
        <mxCell id="4vGNX6ftqIx7hebFvJX0-3" value="Data" style="shape=module;align=left;spacingLeft=20;align=center;verticalAlign=top;whiteSpace=wrap;html=1;" parent="1" vertex="1">
          <mxGeometry x="29" y="670" width="1371" height="180" as="geometry" />
        </mxCell>
        <mxCell id="Mzm_h6cvFY5Xjswd9-C1-1" value="Adapter" style="swimlane;fontStyle=1;align=center;verticalAlign=top;childLayout=stackLayout;horizontal=1;startSize=26;horizontalStack=0;resizeParent=1;resizeParentMax=0;resizeLast=0;collapsible=1;marginBottom=0;whiteSpace=wrap;html=1;" parent="1" vertex="1">
          <mxGeometry x="100" y="20" width="300" height="140" as="geometry" />
        </mxCell>
        <mxCell id="Mzm_h6cvFY5Xjswd9-C1-2" value="- controller: iGetController" style="text;strokeColor=none;fillColor=none;align=left;verticalAlign=top;spacingLeft=4;spacingRight=4;overflow=hidden;rotatable=0;points=[[0,0.5],[1,0.5]];portConstraint=eastwest;whiteSpace=wrap;html=1;" parent="Mzm_h6cvFY5Xjswd9-C1-1" vertex="1">
          <mxGeometry y="26" width="300" height="26" as="geometry" />
        </mxCell>
        <mxCell id="Mzm_h6cvFY5Xjswd9-C1-3" value="" style="line;strokeWidth=1;fillColor=none;align=left;verticalAlign=middle;spacingTop=-1;spacingLeft=3;spacingRight=3;rotatable=0;labelPosition=right;points=[];portConstraint=eastwest;strokeColor=inherit;" parent="Mzm_h6cvFY5Xjswd9-C1-1" vertex="1">
          <mxGeometry y="52" width="300" height="8" as="geometry" />
        </mxCell>
        <mxCell id="Mzm_h6cvFY5Xjswd9-C1-4" value="+ registration(String, String, String, String, int): void&lt;br&gt;+ authentification(String, String): void&lt;br&gt;+ locationSelect() Location&lt;br&gt;+ tableSelect(): Table&lt;br&gt;+ confirmReservation(): void" style="text;strokeColor=none;fillColor=none;align=left;verticalAlign=top;spacingLeft=4;spacingRight=4;overflow=hidden;rotatable=0;points=[[0,0.5],[1,0.5]];portConstraint=eastwest;whiteSpace=wrap;html=1;" parent="Mzm_h6cvFY5Xjswd9-C1-1" vertex="1">
          <mxGeometry y="60" width="300" height="80" as="geometry" />
        </mxCell>
        <mxCell id="Mzm_h6cvFY5Xjswd9-C1-5" value="Repo" style="swimlane;fontStyle=1;align=center;verticalAlign=top;childLayout=stackLayout;horizontal=1;startSize=26;horizontalStack=0;resizeParent=1;resizeParentMax=0;resizeLast=0;collapsible=1;marginBottom=0;whiteSpace=wrap;html=1;" parent="1" vertex="1">
          <mxGeometry x="99" y="680" width="301" height="160" as="geometry" />
        </mxCell>
        <mxCell id="Mzm_h6cvFY5Xjswd9-C1-6" value="- controller: iGetController" style="text;strokeColor=none;fillColor=none;align=left;verticalAlign=top;spacingLeft=4;spacingRight=4;overflow=hidden;rotatable=0;points=[[0,0.5],[1,0.5]];portConstraint=eastwest;whiteSpace=wrap;html=1;" parent="Mzm_h6cvFY5Xjswd9-C1-5" vertex="1">
          <mxGeometry y="26" width="301" height="26" as="geometry" />
        </mxCell>
        <mxCell id="Mzm_h6cvFY5Xjswd9-C1-7" value="" style="line;strokeWidth=1;fillColor=none;align=left;verticalAlign=middle;spacingTop=-1;spacingLeft=3;spacingRight=3;rotatable=0;labelPosition=right;points=[];portConstraint=eastwest;strokeColor=inherit;" parent="Mzm_h6cvFY5Xjswd9-C1-5" vertex="1">
          <mxGeometry y="52" width="301" height="8" as="geometry" />
        </mxCell>
        <mxCell id="Mzm_h6cvFY5Xjswd9-C1-8" value="+ getReserv(): Reservation&lt;br style=&quot;border-color: var(--border-color);&quot;&gt;+ getLocations(): Location&lt;br style=&quot;border-color: var(--border-color);&quot;&gt;+ getTales(): Table&lt;br style=&quot;border-color: var(--border-color);&quot;&gt;+ setReserv(): Reservation&lt;br style=&quot;border-color: var(--border-color);&quot;&gt;+ setLocations(): Location&lt;br style=&quot;border-color: var(--border-color);&quot;&gt;+ setTables(): Table" style="text;strokeColor=none;fillColor=none;align=left;verticalAlign=top;spacingLeft=4;spacingRight=4;overflow=hidden;rotatable=0;points=[[0,0.5],[1,0.5]];portConstraint=eastwest;whiteSpace=wrap;html=1;" parent="Mzm_h6cvFY5Xjswd9-C1-5" vertex="1">
          <mxGeometry y="60" width="301" height="100" as="geometry" />
        </mxCell>
        <mxCell id="Mzm_h6cvFY5Xjswd9-C1-9" value="&lt;p style=&quot;margin:0px;margin-top:4px;text-align:center;&quot;&gt;&lt;b&gt;&amp;lt;&amp;lt;Interface&amp;gt;&amp;gt;&lt;/b&gt;&lt;/p&gt;&lt;p style=&quot;margin:0px;margin-top:4px;text-align:center;&quot;&gt;&lt;b&gt;iAdapter&lt;/b&gt;&lt;/p&gt;&lt;hr size=&quot;1&quot;&gt;&lt;div style=&quot;height:2px;&quot;&gt;+ registration(): void&lt;br style=&quot;border-color: var(--border-color);&quot;&gt;+ authentification(login, pw): void&lt;br style=&quot;border-color: var(--border-color);&quot;&gt;+ locationSelect() Location&lt;br style=&quot;border-color: var(--border-color);&quot;&gt;+ tableSelect(): Table&lt;br style=&quot;border-color: var(--border-color);&quot;&gt;+ confirmReservation(): void&lt;/div&gt;" style="verticalAlign=top;align=left;overflow=fill;fontSize=12;fontFamily=Helvetica;html=1;whiteSpace=wrap;" parent="1" vertex="1">
          <mxGeometry x="99" y="190" width="301" height="130" as="geometry" />
        </mxCell>
        <mxCell id="Mzm_h6cvFY5Xjswd9-C1-10" value="&lt;p style=&quot;margin:0px;margin-top:4px;text-align:center;&quot;&gt;&lt;b&gt;&amp;lt;&amp;lt;Interface&amp;gt;&amp;gt;&lt;/b&gt;&lt;/p&gt;&lt;p style=&quot;margin:0px;margin-top:4px;text-align:center;&quot;&gt;&lt;b&gt;iRepo&lt;/b&gt;&lt;/p&gt;&lt;hr size=&quot;1&quot;&gt;&lt;div style=&quot;height:2px;&quot;&gt;+ getReserv(): Reservation&lt;br style=&quot;border-color: var(--border-color);&quot;&gt;+ getLocations(): Location&lt;br style=&quot;border-color: var(--border-color);&quot;&gt;+ getTales(): Table&lt;br style=&quot;border-color: var(--border-color);&quot;&gt;+ setReserv(): Reservation&lt;br style=&quot;border-color: var(--border-color);&quot;&gt;+ setLocations(): Location&lt;br style=&quot;border-color: var(--border-color);&quot;&gt;+ setTables(): Table&lt;/div&gt;" style="verticalAlign=top;align=left;overflow=fill;fontSize=12;fontFamily=Helvetica;html=1;whiteSpace=wrap;" parent="1" vertex="1">
          <mxGeometry x="99" y="500" width="301" height="150" as="geometry" />
        </mxCell>
        <mxCell id="Mzm_h6cvFY5Xjswd9-C1-11" value="&lt;p style=&quot;margin:0px;margin-top:4px;text-align:center;&quot;&gt;&lt;b&gt;&amp;lt;&amp;lt;Interface&amp;gt;&amp;gt;&lt;/b&gt;&lt;/p&gt;&lt;p style=&quot;margin:0px;margin-top:4px;text-align:center;&quot;&gt;&lt;b&gt;iController&lt;/b&gt;&lt;/p&gt;&lt;hr size=&quot;1&quot;&gt;&lt;div style=&quot;height:2px;&quot;&gt;&lt;div style=&quot;&quot;&gt;&lt;span style=&quot;background-color: initial;&quot;&gt;+ update(): void&lt;/span&gt;&lt;/div&gt;&lt;div style=&quot;&quot;&gt;&lt;span style=&quot;background-color: initial;&quot;&gt;+ getReserv(): Reservation&lt;/span&gt;&lt;/div&gt;&lt;div style=&quot;&quot;&gt;&lt;span style=&quot;background-color: initial;&quot;&gt;+ getLocations(): Location&lt;/span&gt;&lt;/div&gt;&lt;div style=&quot;&quot;&gt;&lt;span style=&quot;background-color: initial;&quot;&gt;+ getTales(): Table&lt;/span&gt;&lt;/div&gt;&lt;div style=&quot;&quot;&gt;&lt;span style=&quot;background-color: initial;&quot;&gt;+ setReserv(): Reservation&lt;/span&gt;&lt;/div&gt;&lt;div style=&quot;&quot;&gt;&lt;span style=&quot;background-color: initial;&quot;&gt;+ setLocations(): Location&lt;/span&gt;&lt;/div&gt;&lt;div style=&quot;&quot;&gt;&lt;span style=&quot;background-color: initial;&quot;&gt;+ setTables(): Table&lt;/span&gt;&lt;/div&gt;&lt;/div&gt;" style="verticalAlign=top;align=left;overflow=fill;fontSize=12;fontFamily=Helvetica;html=1;whiteSpace=wrap;" parent="1" vertex="1">
          <mxGeometry x="99" y="330" width="301" height="160" as="geometry" />
        </mxCell>
        <mxCell id="Mzm_h6cvFY5Xjswd9-C1-12" value="&lt;div style=&quot;&quot;&gt;&lt;span style=&quot;background-color: initial;&quot;&gt;Domains&lt;/span&gt;&lt;/div&gt;&lt;div style=&quot;&quot;&gt;&lt;span style=&quot;background-color: initial;&quot;&gt;&lt;br&gt;&lt;/span&gt;&lt;/div&gt;&lt;div style=&quot;&quot;&gt;&lt;span style=&quot;background-color: initial;&quot;&gt;&lt;br&gt;&lt;/span&gt;&lt;/div&gt;&lt;div style=&quot;&quot;&gt;&lt;span style=&quot;background-color: initial;&quot;&gt;&lt;br&gt;&lt;/span&gt;&lt;/div&gt;&lt;div style=&quot;&quot;&gt;&lt;span style=&quot;background-color: initial;&quot;&gt;&lt;br&gt;&lt;/span&gt;&lt;/div&gt;&lt;div style=&quot;&quot;&gt;&lt;span style=&quot;background-color: initial;&quot;&gt;&lt;br&gt;&lt;/span&gt;&lt;/div&gt;&lt;div style=&quot;&quot;&gt;&lt;span style=&quot;background-color: initial;&quot;&gt;&lt;br&gt;&lt;/span&gt;&lt;/div&gt;&lt;div style=&quot;&quot;&gt;&lt;span style=&quot;background-color: initial;&quot;&gt;&lt;br&gt;&lt;/span&gt;&lt;/div&gt;&lt;div style=&quot;&quot;&gt;&lt;span style=&quot;background-color: initial;&quot;&gt;&lt;br&gt;&lt;/span&gt;&lt;/div&gt;&lt;div style=&quot;&quot;&gt;&lt;span style=&quot;background-color: initial;&quot;&gt;&lt;br&gt;&lt;/span&gt;&lt;/div&gt;&lt;div style=&quot;&quot;&gt;&lt;span style=&quot;background-color: initial;&quot;&gt;&lt;br&gt;&lt;/span&gt;&lt;/div&gt;&lt;div style=&quot;&quot;&gt;&lt;span style=&quot;background-color: initial;&quot;&gt;&lt;br&gt;&lt;/span&gt;&lt;/div&gt;&lt;div style=&quot;&quot;&gt;&lt;span style=&quot;background-color: initial;&quot;&gt;&lt;br&gt;&lt;/span&gt;&lt;/div&gt;&lt;div style=&quot;&quot;&gt;&lt;span style=&quot;background-color: initial;&quot;&gt;&lt;br&gt;&lt;/span&gt;&lt;/div&gt;&lt;div style=&quot;&quot;&gt;&lt;span style=&quot;background-color: initial;&quot;&gt;&lt;br&gt;&lt;/span&gt;&lt;/div&gt;&lt;div style=&quot;&quot;&gt;&lt;span style=&quot;background-color: initial;&quot;&gt;&lt;br&gt;&lt;/span&gt;&lt;/div&gt;&lt;div style=&quot;&quot;&gt;&lt;span style=&quot;background-color: initial;&quot;&gt;&lt;br&gt;&lt;/span&gt;&lt;/div&gt;&lt;div style=&quot;&quot;&gt;&lt;span style=&quot;background-color: initial;&quot;&gt;&lt;br&gt;&lt;/span&gt;&lt;/div&gt;&lt;div style=&quot;&quot;&gt;&lt;span style=&quot;background-color: initial;&quot;&gt;&lt;br&gt;&lt;/span&gt;&lt;/div&gt;&lt;div style=&quot;&quot;&gt;&lt;span style=&quot;background-color: initial;&quot;&gt;&lt;br&gt;&lt;/span&gt;&lt;/div&gt;&lt;div style=&quot;&quot;&gt;&lt;span style=&quot;background-color: initial;&quot;&gt;&lt;br&gt;&lt;/span&gt;&lt;/div&gt;&lt;div style=&quot;&quot;&gt;&lt;span style=&quot;background-color: initial;&quot;&gt;&lt;br&gt;&lt;/span&gt;&lt;/div&gt;&lt;div style=&quot;&quot;&gt;&lt;span style=&quot;background-color: initial;&quot;&gt;&lt;br&gt;&lt;/span&gt;&lt;/div&gt;&lt;div style=&quot;&quot;&gt;&lt;span style=&quot;background-color: initial;&quot;&gt;&lt;br&gt;&lt;/span&gt;&lt;/div&gt;&lt;div style=&quot;&quot;&gt;&lt;span style=&quot;background-color: initial;&quot;&gt;&lt;br&gt;&lt;/span&gt;&lt;/div&gt;&lt;div style=&quot;&quot;&gt;&lt;span style=&quot;background-color: initial;&quot;&gt;&lt;br&gt;&lt;/span&gt;&lt;/div&gt;&lt;div style=&quot;&quot;&gt;&lt;span style=&quot;background-color: initial;&quot;&gt;&lt;br&gt;&lt;/span&gt;&lt;/div&gt;&lt;div style=&quot;&quot;&gt;&lt;span style=&quot;background-color: initial;&quot;&gt;&lt;br&gt;&lt;/span&gt;&lt;/div&gt;" style="shape=folder;fontStyle=1;spacingTop=10;tabWidth=40;tabHeight=14;tabPosition=left;html=1;whiteSpace=wrap;align=center;" parent="1" vertex="1">
          <mxGeometry x="690" y="210" width="669" height="440" as="geometry" />
        </mxCell>
        <mxCell id="Mzm_h6cvFY5Xjswd9-C1-13" value="Controller" style="swimlane;fontStyle=1;align=center;verticalAlign=top;childLayout=stackLayout;horizontal=1;startSize=26;horizontalStack=0;resizeParent=1;resizeParentMax=0;resizeLast=0;collapsible=1;marginBottom=0;whiteSpace=wrap;html=1;" parent="1" vertex="1">
          <mxGeometry x="490" y="340" width="160" height="190" as="geometry" />
        </mxCell>
        <mxCell id="Mzm_h6cvFY5Xjswd9-C1-14" value="- adapter: iAdaper&lt;br&gt;- repo: iRepo" style="text;strokeColor=none;fillColor=none;align=left;verticalAlign=top;spacingLeft=4;spacingRight=4;overflow=hidden;rotatable=0;points=[[0,0.5],[1,0.5]];portConstraint=eastwest;whiteSpace=wrap;html=1;" parent="Mzm_h6cvFY5Xjswd9-C1-13" vertex="1">
          <mxGeometry y="26" width="160" height="34" as="geometry" />
        </mxCell>
        <mxCell id="Mzm_h6cvFY5Xjswd9-C1-15" value="" style="line;strokeWidth=1;fillColor=none;align=left;verticalAlign=middle;spacingTop=-1;spacingLeft=3;spacingRight=3;rotatable=0;labelPosition=right;points=[];portConstraint=eastwest;strokeColor=inherit;" parent="Mzm_h6cvFY5Xjswd9-C1-13" vertex="1">
          <mxGeometry y="60" width="160" height="8" as="geometry" />
        </mxCell>
        <mxCell id="Mzm_h6cvFY5Xjswd9-C1-16" value="+ update(): void&lt;br style=&quot;border-color: var(--border-color);&quot;&gt;+ getReserv(): Reservation&lt;br style=&quot;border-color: var(--border-color);&quot;&gt;+ getLocations(): Location&lt;br style=&quot;border-color: var(--border-color);&quot;&gt;+ getTales(): Table&lt;br style=&quot;border-color: var(--border-color);&quot;&gt;+ setReserv(): Reservation&lt;br style=&quot;border-color: var(--border-color);&quot;&gt;+ setLocations(): Location&lt;br style=&quot;border-color: var(--border-color);&quot;&gt;+ setTables(): Table" style="text;strokeColor=none;fillColor=none;align=left;verticalAlign=top;spacingLeft=4;spacingRight=4;overflow=hidden;rotatable=0;points=[[0,0.5],[1,0.5]];portConstraint=eastwest;whiteSpace=wrap;html=1;" parent="Mzm_h6cvFY5Xjswd9-C1-13" vertex="1">
          <mxGeometry y="68" width="160" height="122" as="geometry" />
        </mxCell>
        <mxCell id="Mzm_h6cvFY5Xjswd9-C1-17" value="Location" style="swimlane;fontStyle=1;align=center;verticalAlign=top;childLayout=stackLayout;horizontal=1;startSize=26;horizontalStack=0;resizeParent=1;resizeParentMax=0;resizeLast=0;collapsible=1;marginBottom=0;whiteSpace=wrap;html=1;" parent="1" vertex="1">
          <mxGeometry x="1187" y="490" width="160" height="150" as="geometry" />
        </mxCell>
        <mxCell id="Mzm_h6cvFY5Xjswd9-C1-18" value="+ name: String&lt;br&gt;+ roomArea: int&lt;br&gt;+ tablesQuantity: int" style="text;strokeColor=none;fillColor=none;align=left;verticalAlign=top;spacingLeft=4;spacingRight=4;overflow=hidden;rotatable=0;points=[[0,0.5],[1,0.5]];portConstraint=eastwest;whiteSpace=wrap;html=1;" parent="Mzm_h6cvFY5Xjswd9-C1-17" vertex="1">
          <mxGeometry y="26" width="160" height="54" as="geometry" />
        </mxCell>
        <mxCell id="Mzm_h6cvFY5Xjswd9-C1-19" value="" style="line;strokeWidth=1;fillColor=none;align=left;verticalAlign=middle;spacingTop=-1;spacingLeft=3;spacingRight=3;rotatable=0;labelPosition=right;points=[];portConstraint=eastwest;strokeColor=inherit;" parent="Mzm_h6cvFY5Xjswd9-C1-17" vertex="1">
          <mxGeometry y="80" width="160" height="8" as="geometry" />
        </mxCell>
        <mxCell id="Mzm_h6cvFY5Xjswd9-C1-20" value="+ getName(): String&lt;br&gt;+ getArea(): int&lt;br&gt;+ getQuantity(): int" style="text;strokeColor=none;fillColor=none;align=left;verticalAlign=top;spacingLeft=4;spacingRight=4;overflow=hidden;rotatable=0;points=[[0,0.5],[1,0.5]];portConstraint=eastwest;whiteSpace=wrap;html=1;" parent="Mzm_h6cvFY5Xjswd9-C1-17" vertex="1">
          <mxGeometry y="88" width="160" height="62" as="geometry" />
        </mxCell>
        <mxCell id="Mzm_h6cvFY5Xjswd9-C1-21" value="DB" style="html=1;whiteSpace=wrap;" parent="1" vertex="1">
          <mxGeometry x="490" y="694" width="110" height="50" as="geometry" />
        </mxCell>
        <mxCell id="Mzm_h6cvFY5Xjswd9-C1-22" value="" style="endArrow=none;html=1;edgeStyle=orthogonalEdgeStyle;rounded=0;exitX=1;exitY=0.5;exitDx=0;exitDy=0;entryX=0;entryY=0.5;entryDx=0;entryDy=0;" parent="1" source="Mzm_h6cvFY5Xjswd9-C1-6" target="Mzm_h6cvFY5Xjswd9-C1-21" edge="1">
          <mxGeometry relative="1" as="geometry">
            <mxPoint x="269" y="723" as="sourcePoint" />
            <mxPoint x="448" y="202" as="targetPoint" />
          </mxGeometry>
        </mxCell>
        <mxCell id="Mzm_h6cvFY5Xjswd9-C1-27" value="Customer" style="swimlane;fontStyle=1;align=center;verticalAlign=top;childLayout=stackLayout;horizontal=1;startSize=26;horizontalStack=0;resizeParent=1;resizeParentMax=0;resizeLast=0;collapsible=1;marginBottom=0;whiteSpace=wrap;html=1;" parent="1" vertex="1">
          <mxGeometry x="1019" y="250" width="108" height="100" as="geometry" />
        </mxCell>
        <mxCell id="Mzm_h6cvFY5Xjswd9-C1-28" value="- id: Int&lt;br&gt;- name: String&lt;br&gt;- address: String&lt;br&gt;- phone: int" style="text;strokeColor=none;fillColor=none;align=left;verticalAlign=top;spacingLeft=4;spacingRight=4;overflow=hidden;rotatable=0;points=[[0,0.5],[1,0.5]];portConstraint=eastwest;whiteSpace=wrap;html=1;" parent="Mzm_h6cvFY5Xjswd9-C1-27" vertex="1">
          <mxGeometry y="26" width="108" height="74" as="geometry" />
        </mxCell>
        <mxCell id="Mzm_h6cvFY5Xjswd9-C1-29" value="Locations" style="swimlane;fontStyle=1;align=center;verticalAlign=top;childLayout=stackLayout;horizontal=1;startSize=26;horizontalStack=0;resizeParent=1;resizeParentMax=0;resizeLast=0;collapsible=1;marginBottom=0;whiteSpace=wrap;html=1;" parent="1" vertex="1">
          <mxGeometry x="979" y="530" width="174" height="110" as="geometry" />
        </mxCell>
        <mxCell id="Mzm_h6cvFY5Xjswd9-C1-30" value="- listLocation: List&amp;lt;Location&amp;gt;" style="text;strokeColor=none;fillColor=none;align=left;verticalAlign=top;spacingLeft=4;spacingRight=4;overflow=hidden;rotatable=0;points=[[0,0.5],[1,0.5]];portConstraint=eastwest;whiteSpace=wrap;html=1;" parent="Mzm_h6cvFY5Xjswd9-C1-29" vertex="1">
          <mxGeometry y="26" width="174" height="26" as="geometry" />
        </mxCell>
        <mxCell id="Mzm_h6cvFY5Xjswd9-C1-31" value="" style="line;strokeWidth=1;fillColor=none;align=left;verticalAlign=middle;spacingTop=-1;spacingLeft=3;spacingRight=3;rotatable=0;labelPosition=right;points=[];portConstraint=eastwest;strokeColor=inherit;" parent="Mzm_h6cvFY5Xjswd9-C1-29" vertex="1">
          <mxGeometry y="52" width="174" height="8" as="geometry" />
        </mxCell>
        <mxCell id="Mzm_h6cvFY5Xjswd9-C1-32" value="+ addLocation():void&lt;br style=&quot;border-color: var(--border-color); text-align: center;&quot;&gt;+ setLocation&lt;span style=&quot;text-align: center;&quot;&gt;(): void&lt;/span&gt;&lt;br style=&quot;border-color: var(--border-color); text-align: center;&quot;&gt;+ delLocation(): void" style="text;strokeColor=none;fillColor=none;align=left;verticalAlign=top;spacingLeft=4;spacingRight=4;overflow=hidden;rotatable=0;points=[[0,0.5],[1,0.5]];portConstraint=eastwest;whiteSpace=wrap;html=1;" parent="Mzm_h6cvFY5Xjswd9-C1-29" vertex="1">
          <mxGeometry y="60" width="174" height="50" as="geometry" />
        </mxCell>
        <mxCell id="Mzm_h6cvFY5Xjswd9-C1-33" value="Reservation" style="swimlane;fontStyle=1;align=center;verticalAlign=top;childLayout=stackLayout;horizontal=1;startSize=26;horizontalStack=0;resizeParent=1;resizeParentMax=0;resizeLast=0;collapsible=1;marginBottom=0;whiteSpace=wrap;html=1;" parent="1" vertex="1">
          <mxGeometry x="779" y="276" width="160" height="170" as="geometry" />
        </mxCell>
        <mxCell id="Mzm_h6cvFY5Xjswd9-C1-34" value="- id: int&lt;br&gt;- number: int&lt;br&gt;- customerID: int&lt;br&gt;- locationID: int&lt;br style=&quot;border-color: var(--border-color);&quot;&gt;- tableID: int" style="text;strokeColor=none;fillColor=none;align=left;verticalAlign=top;spacingLeft=4;spacingRight=4;overflow=hidden;rotatable=0;points=[[0,0.5],[1,0.5]];portConstraint=eastwest;whiteSpace=wrap;html=1;" parent="Mzm_h6cvFY5Xjswd9-C1-33" vertex="1">
          <mxGeometry y="26" width="160" height="74" as="geometry" />
        </mxCell>
        <mxCell id="Mzm_h6cvFY5Xjswd9-C1-35" value="" style="line;strokeWidth=1;fillColor=none;align=left;verticalAlign=middle;spacingTop=-1;spacingLeft=3;spacingRight=3;rotatable=0;labelPosition=right;points=[];portConstraint=eastwest;strokeColor=inherit;" parent="Mzm_h6cvFY5Xjswd9-C1-33" vertex="1">
          <mxGeometry y="100" width="160" height="8" as="geometry" />
        </mxCell>
        <mxCell id="Mzm_h6cvFY5Xjswd9-C1-36" value="+ getNumber(): int&lt;br&gt;+ get prod(): List&amp;lt;Product&amp;gt;&lt;br&gt;+ getClient(): Client" style="text;strokeColor=none;fillColor=none;align=left;verticalAlign=top;spacingLeft=4;spacingRight=4;overflow=hidden;rotatable=0;points=[[0,0.5],[1,0.5]];portConstraint=eastwest;whiteSpace=wrap;html=1;" parent="Mzm_h6cvFY5Xjswd9-C1-33" vertex="1">
          <mxGeometry y="108" width="160" height="62" as="geometry" />
        </mxCell>
        <mxCell id="Mzm_h6cvFY5Xjswd9-C1-37" value="1" style="endArrow=open;html=1;endSize=12;startArrow=diamondThin;startSize=14;startFill=0;edgeStyle=orthogonalEdgeStyle;align=left;verticalAlign=bottom;rounded=0;exitX=0.996;exitY=0.986;exitDx=0;exitDy=0;exitPerimeter=0;entryX=0;entryY=0.5;entryDx=0;entryDy=0;" parent="1" source="Mzm_h6cvFY5Xjswd9-C1-34" target="Mzm_h6cvFY5Xjswd9-C1-30" edge="1">
          <mxGeometry x="-0.7507" relative="1" as="geometry">
            <mxPoint x="1319.97" y="724.78" as="sourcePoint" />
            <mxPoint x="1369" y="725" as="targetPoint" />
            <Array as="points">
              <mxPoint x="959" y="375" />
              <mxPoint x="959" y="569" />
            </Array>
            <mxPoint as="offset" />
          </mxGeometry>
        </mxCell>
        <mxCell id="Mzm_h6cvFY5Xjswd9-C1-38" value="1" style="endArrow=open;html=1;endSize=12;startArrow=diamondThin;startSize=14;startFill=0;edgeStyle=orthogonalEdgeStyle;align=left;verticalAlign=bottom;rounded=0;exitX=1;exitY=0.593;exitDx=0;exitDy=0;entryX=-0.003;entryY=0.094;entryDx=0;entryDy=0;entryPerimeter=0;exitPerimeter=0;" parent="1" source="Mzm_h6cvFY5Xjswd9-C1-34" target="Mzm_h6cvFY5Xjswd9-C1-27" edge="1">
          <mxGeometry x="-0.7507" relative="1" as="geometry">
            <mxPoint x="1320" y="735" as="sourcePoint" />
            <mxPoint x="1273" y="550" as="targetPoint" />
            <Array as="points">
              <mxPoint x="999" y="346" />
              <mxPoint x="999" y="260" />
              <mxPoint x="1019" y="260" />
            </Array>
            <mxPoint as="offset" />
          </mxGeometry>
        </mxCell>
        <mxCell id="Mzm_h6cvFY5Xjswd9-C1-41" value="" style="endArrow=none;html=1;edgeStyle=orthogonalEdgeStyle;rounded=0;exitX=1;exitY=0.5;exitDx=0;exitDy=0;entryX=0;entryY=0.5;entryDx=0;entryDy=0;" parent="1" source="Mzm_h6cvFY5Xjswd9-C1-30" target="Mzm_h6cvFY5Xjswd9-C1-18" edge="1">
          <mxGeometry relative="1" as="geometry">
            <mxPoint x="1039" y="661" as="sourcePoint" />
            <mxPoint x="1102" y="499" as="targetPoint" />
          </mxGeometry>
        </mxCell>
        <mxCell id="Mzm_h6cvFY5Xjswd9-C1-42" value="Table" style="swimlane;fontStyle=1;align=center;verticalAlign=top;childLayout=stackLayout;horizontal=1;startSize=26;horizontalStack=0;resizeParent=1;resizeParentMax=0;resizeLast=0;collapsible=1;marginBottom=0;whiteSpace=wrap;html=1;" parent="1" vertex="1">
          <mxGeometry x="1187" y="350" width="160" height="120" as="geometry" />
        </mxCell>
        <mxCell id="Mzm_h6cvFY5Xjswd9-C1-43" value="+ name: String&lt;br&gt;+ customersQuantity: int" style="text;strokeColor=none;fillColor=none;align=left;verticalAlign=top;spacingLeft=4;spacingRight=4;overflow=hidden;rotatable=0;points=[[0,0.5],[1,0.5]];portConstraint=eastwest;whiteSpace=wrap;html=1;" parent="Mzm_h6cvFY5Xjswd9-C1-42" vertex="1">
          <mxGeometry y="26" width="160" height="44" as="geometry" />
        </mxCell>
        <mxCell id="Mzm_h6cvFY5Xjswd9-C1-44" value="" style="line;strokeWidth=1;fillColor=none;align=left;verticalAlign=middle;spacingTop=-1;spacingLeft=3;spacingRight=3;rotatable=0;labelPosition=right;points=[];portConstraint=eastwest;strokeColor=inherit;" parent="Mzm_h6cvFY5Xjswd9-C1-42" vertex="1">
          <mxGeometry y="70" width="160" height="8" as="geometry" />
        </mxCell>
        <mxCell id="Mzm_h6cvFY5Xjswd9-C1-45" value="+ getName(): String&lt;br&gt;+ getQuantity(): int" style="text;strokeColor=none;fillColor=none;align=left;verticalAlign=top;spacingLeft=4;spacingRight=4;overflow=hidden;rotatable=0;points=[[0,0.5],[1,0.5]];portConstraint=eastwest;whiteSpace=wrap;html=1;" parent="Mzm_h6cvFY5Xjswd9-C1-42" vertex="1">
          <mxGeometry y="78" width="160" height="42" as="geometry" />
        </mxCell>
        <mxCell id="Mzm_h6cvFY5Xjswd9-C1-46" value="Tables" style="swimlane;fontStyle=1;align=center;verticalAlign=top;childLayout=stackLayout;horizontal=1;startSize=26;horizontalStack=0;resizeParent=1;resizeParentMax=0;resizeLast=0;collapsible=1;marginBottom=0;whiteSpace=wrap;html=1;" parent="1" vertex="1">
          <mxGeometry x="1019" y="360" width="134" height="110" as="geometry" />
        </mxCell>
        <mxCell id="Mzm_h6cvFY5Xjswd9-C1-47" value="- listTable: List&amp;lt;Table&amp;gt;" style="text;strokeColor=none;fillColor=none;align=left;verticalAlign=top;spacingLeft=4;spacingRight=4;overflow=hidden;rotatable=0;points=[[0,0.5],[1,0.5]];portConstraint=eastwest;whiteSpace=wrap;html=1;" parent="Mzm_h6cvFY5Xjswd9-C1-46" vertex="1">
          <mxGeometry y="26" width="134" height="26" as="geometry" />
        </mxCell>
        <mxCell id="Mzm_h6cvFY5Xjswd9-C1-48" value="" style="line;strokeWidth=1;fillColor=none;align=left;verticalAlign=middle;spacingTop=-1;spacingLeft=3;spacingRight=3;rotatable=0;labelPosition=right;points=[];portConstraint=eastwest;strokeColor=inherit;" parent="Mzm_h6cvFY5Xjswd9-C1-46" vertex="1">
          <mxGeometry y="52" width="134" height="8" as="geometry" />
        </mxCell>
        <mxCell id="Mzm_h6cvFY5Xjswd9-C1-49" value="+ addTable():void&lt;br style=&quot;border-color: var(--border-color); text-align: center;&quot;&gt;+ setTable&lt;span style=&quot;text-align: center;&quot;&gt;(): void&lt;/span&gt;&lt;br style=&quot;border-color: var(--border-color); text-align: center;&quot;&gt;+ delTable(): void" style="text;strokeColor=none;fillColor=none;align=left;verticalAlign=top;spacingLeft=4;spacingRight=4;overflow=hidden;rotatable=0;points=[[0,0.5],[1,0.5]];portConstraint=eastwest;whiteSpace=wrap;html=1;" parent="Mzm_h6cvFY5Xjswd9-C1-46" vertex="1">
          <mxGeometry y="60" width="134" height="50" as="geometry" />
        </mxCell>
        <mxCell id="Mzm_h6cvFY5Xjswd9-C1-50" value="" style="endArrow=none;html=1;edgeStyle=orthogonalEdgeStyle;rounded=0;exitX=1;exitY=0.5;exitDx=0;exitDy=0;entryX=0;entryY=0.5;entryDx=0;entryDy=0;" parent="1" source="Mzm_h6cvFY5Xjswd9-C1-47" target="Mzm_h6cvFY5Xjswd9-C1-43" edge="1">
          <mxGeometry relative="1" as="geometry">
            <mxPoint x="1039" y="486" as="sourcePoint" />
            <mxPoint x="1102" y="324" as="targetPoint" />
          </mxGeometry>
        </mxCell>
        <mxCell id="Mzm_h6cvFY5Xjswd9-C1-51" value="1" style="endArrow=open;html=1;endSize=12;startArrow=diamondThin;startSize=14;startFill=0;edgeStyle=orthogonalEdgeStyle;align=left;verticalAlign=bottom;rounded=0;exitX=1.006;exitY=0.787;exitDx=0;exitDy=0;exitPerimeter=0;entryX=0;entryY=0.5;entryDx=0;entryDy=0;" parent="1" source="Mzm_h6cvFY5Xjswd9-C1-34" target="Mzm_h6cvFY5Xjswd9-C1-47" edge="1">
          <mxGeometry x="-0.7507" relative="1" as="geometry">
            <mxPoint x="948" y="385" as="sourcePoint" />
            <mxPoint x="989" y="579" as="targetPoint" />
            <Array as="points">
              <mxPoint x="979" y="360" />
              <mxPoint x="979" y="399" />
            </Array>
            <mxPoint as="offset" />
          </mxGeometry>
        </mxCell>
        <mxCell id="Mzm_h6cvFY5Xjswd9-C1-52" value="Extends" style="endArrow=block;endSize=16;endFill=0;html=1;rounded=0;exitX=0;exitY=0.046;exitDx=0;exitDy=0;entryX=1.002;entryY=0.116;entryDx=0;entryDy=0;entryPerimeter=0;exitPerimeter=0;" parent="1" source="Mzm_h6cvFY5Xjswd9-C1-13" target="Mzm_h6cvFY5Xjswd9-C1-11" edge="1">
          <mxGeometry width="160" relative="1" as="geometry">
            <mxPoint x="630" y="420" as="sourcePoint" />
            <mxPoint x="790" y="420" as="targetPoint" />
          </mxGeometry>
        </mxCell>
        <mxCell id="Mzm_h6cvFY5Xjswd9-C1-53" value="Extends" style="endArrow=block;endSize=16;endFill=0;html=1;rounded=0;exitX=0.499;exitY=1.003;exitDx=0;exitDy=0;entryX=0.5;entryY=0;entryDx=0;entryDy=0;exitPerimeter=0;" parent="1" source="Mzm_h6cvFY5Xjswd9-C1-4" target="Mzm_h6cvFY5Xjswd9-C1-9" edge="1">
          <mxGeometry width="160" relative="1" as="geometry">
            <mxPoint x="378" y="368" as="sourcePoint" />
            <mxPoint x="269" y="380" as="targetPoint" />
          </mxGeometry>
        </mxCell>
        <mxCell id="Mzm_h6cvFY5Xjswd9-C1-54" value="Extends" style="endArrow=block;endSize=16;endFill=0;html=1;rounded=0;exitX=0.5;exitY=0;exitDx=0;exitDy=0;entryX=0.5;entryY=1;entryDx=0;entryDy=0;" parent="1" source="Mzm_h6cvFY5Xjswd9-C1-5" target="Mzm_h6cvFY5Xjswd9-C1-10" edge="1">
          <mxGeometry width="160" relative="1" as="geometry">
            <mxPoint x="388" y="378" as="sourcePoint" />
            <mxPoint x="279" y="390" as="targetPoint" />
          </mxGeometry>
        </mxCell>
        <mxCell id="Mzm_h6cvFY5Xjswd9-C1-55" value="1" style="endArrow=open;html=1;endSize=12;startArrow=diamondThin;startSize=14;startFill=0;edgeStyle=orthogonalEdgeStyle;align=left;verticalAlign=bottom;rounded=0;exitX=-0.002;exitY=0.388;exitDx=0;exitDy=0;entryX=1;entryY=0.25;entryDx=0;entryDy=0;exitPerimeter=0;" parent="1" source="Mzm_h6cvFY5Xjswd9-C1-14" target="Mzm_h6cvFY5Xjswd9-C1-9" edge="1">
          <mxGeometry x="-0.7507" relative="1" as="geometry">
            <mxPoint x="948" y="385" as="sourcePoint" />
            <mxPoint x="989" y="579" as="targetPoint" />
            <Array as="points" />
            <mxPoint as="offset" />
          </mxGeometry>
        </mxCell>
        <mxCell id="Mzm_h6cvFY5Xjswd9-C1-56" value="1" style="endArrow=open;html=1;endSize=12;startArrow=diamondThin;startSize=14;startFill=0;edgeStyle=orthogonalEdgeStyle;align=left;verticalAlign=bottom;rounded=0;entryX=1;entryY=0.25;entryDx=0;entryDy=0;exitX=-0.001;exitY=0.87;exitDx=0;exitDy=0;exitPerimeter=0;" parent="1" source="Mzm_h6cvFY5Xjswd9-C1-14" target="Mzm_h6cvFY5Xjswd9-C1-10" edge="1">
          <mxGeometry x="-0.7507" relative="1" as="geometry">
            <mxPoint x="370" y="369" as="sourcePoint" />
            <mxPoint x="269" y="233" as="targetPoint" />
            <Array as="points" />
            <mxPoint as="offset" />
          </mxGeometry>
        </mxCell>
        <mxCell id="Mzm_h6cvFY5Xjswd9-C1-57" value="1" style="endArrow=open;html=1;endSize=12;startArrow=diamondThin;startSize=14;startFill=0;edgeStyle=orthogonalEdgeStyle;align=left;verticalAlign=bottom;rounded=0;exitX=0;exitY=0.5;exitDx=0;exitDy=0;" parent="1" source="Mzm_h6cvFY5Xjswd9-C1-2" edge="1">
          <mxGeometry x="-0.7507" relative="1" as="geometry">
            <mxPoint x="378" y="389" as="sourcePoint" />
            <mxPoint x="99" y="340" as="targetPoint" />
            <Array as="points">
              <mxPoint x="70" y="59" />
              <mxPoint x="70" y="340" />
              <mxPoint x="99" y="340" />
            </Array>
            <mxPoint as="offset" />
          </mxGeometry>
        </mxCell>
        <mxCell id="Mzm_h6cvFY5Xjswd9-C1-58" value="1" style="endArrow=open;html=1;endSize=12;startArrow=diamondThin;startSize=14;startFill=0;edgeStyle=orthogonalEdgeStyle;align=left;verticalAlign=bottom;rounded=0;exitX=-0.002;exitY=0.087;exitDx=0;exitDy=0;exitPerimeter=0;entryX=-0.002;entryY=0.194;entryDx=0;entryDy=0;entryPerimeter=0;" parent="1" source="Mzm_h6cvFY5Xjswd9-C1-5" target="Mzm_h6cvFY5Xjswd9-C1-11" edge="1">
          <mxGeometry x="-0.8382" relative="1" as="geometry">
            <mxPoint x="110" y="69" as="sourcePoint" />
            <mxPoint x="100" y="361" as="targetPoint" />
            <Array as="points">
              <mxPoint x="70" y="694" />
              <mxPoint x="70" y="361" />
            </Array>
            <mxPoint as="offset" />
          </mxGeometry>
        </mxCell>
        <mxCell id="Mzm_h6cvFY5Xjswd9-C1-59" value="" style="endArrow=none;html=1;edgeStyle=orthogonalEdgeStyle;rounded=0;entryX=0.004;entryY=0.098;entryDx=0;entryDy=0;entryPerimeter=0;exitX=1.003;exitY=0.221;exitDx=0;exitDy=0;exitPerimeter=0;" parent="1" source="Mzm_h6cvFY5Xjswd9-C1-16" target="Mzm_h6cvFY5Xjswd9-C1-33" edge="1">
          <mxGeometry relative="1" as="geometry">
            <mxPoint x="530" y="350" as="sourcePoint" />
            <mxPoint x="428" y="729" as="targetPoint" />
          </mxGeometry>
        </mxCell>
      </root>
    </mxGraphModel>
  </diagram>
</mxfile>
